<svg width="32" height="32" viewBox="0 0 32 32" fill="none" xmlns="http://www.w3.org/2000/svg">
<path d="M16.5145 22.6857C16.5145 26.0941 19.2776 28.8572 22.6859 28.8572C26.0943 28.8572 28.8574 26.0941 28.8574 22.6857C28.8574 19.2774 26.0943 16.5143 22.6859 16.5143M16.5145 22.6857C16.5145 19.2774 19.2776 16.5143 22.6859 16.5143M16.5145 22.6857C16.5145 24.2672 17.1188 25.7072 18.0959 26.8C17.6202 27.0186 17.1831 27.1986 16.7973 27.3272C16.3602 27.4814 15.6402 27.4814 15.2031 27.3272C11.4745 26.0543 3.14307 20.7443 3.14307 11.7443C3.14307 7.77145 6.34449 4.55713 10.2916 4.55713C12.6188 4.55713 14.7016 5.68861 16.0002 7.42433C17.2988 5.68861 19.3816 4.55713 21.7088 4.55713C25.6559 4.55713 28.8574 7.77145 28.8574 11.7443C28.8574 14.2772 28.2016 16.5143 27.1731 18.4557C26.0416 17.26 24.4474 16.5143 22.6859 16.5143M24.9873 22.7629H20.3845M22.6859 20.5129V25.1286" stroke="#ED1212" stroke-width="1.5" stroke-linecap="round" stroke-linejoin="round"/>
</svg>
