<svg width="58" height="58" viewBox="0 0 58 58" fill="none" xmlns="http://www.w3.org/2000/svg">
<path d="M20.1249 35.2129C20.1249 38.6529 22.7649 41.4263 26.0449 41.4263H32.7383C35.5916 41.4263 37.9116 38.9996 37.9116 36.0129C37.9116 32.7596 36.4983 31.6129 34.3916 30.8663L23.6449 27.1329C21.5383 26.3863 20.1249 25.2396 20.1249 21.9863C20.1249 18.9996 22.4449 16.5729 25.2983 16.5729H31.9916C35.2716 16.5729 37.9116 19.3463 37.9116 22.7863M28.9999 13V45M36.9999 55.6667H20.9999C7.66659 55.6667 2.33325 50.3333 2.33325 37V21C2.33325 7.66668 7.66659 2.33334 20.9999 2.33334H36.9999C50.3333 2.33334 55.6666 7.66668 55.6666 21V37C55.6666 50.3333 50.3333 55.6667 36.9999 55.6667Z" stroke="#008037" stroke-width="3" stroke-linecap="round" stroke-linejoin="round"/>
</svg>
