<svg width="64" height="64" viewBox="0 0 64 64" fill="none" xmlns="http://www.w3.org/2000/svg">
<path d="M24.0001 46.6667C24.0001 47.52 23.8934 48.3466 23.6801 49.1466H29.3334L41.2001 57.0667C42.9601 58.2401 45.3334 56.96 45.3334 54.8267V49.1466C49.3334 49.1466 52.6667 47.8133 54.9867 45.4933C57.3334 43.1467 58.6667 39.8133 58.6667 35.8133V19.8133C58.6667 11.8133 53.3334 6.47998 45.3334 6.47998H18.6667C10.6667 6.47998 5.33341 11.8133 5.33341 19.8133V35.8133C5.33341 37.0133 5.44009 38.1601 5.68009 39.2267C7.62676 37.2267 10.3467 36 13.3334 36M24.0001 46.6667C24.0001 43.9467 22.9601 41.44 21.2534 39.5467C19.3334 37.36 16.4801 36 13.3334 36M24.0001 46.6667C24.0001 48.6667 23.4401 50.56 22.4535 52.16C21.8935 53.12 21.1734 53.9733 20.3468 54.6667C18.4801 56.3467 16.0267 57.3333 13.3334 57.3333C9.44008 57.3333 6.05338 55.2533 4.21338 52.16C3.22671 50.56 2.66675 48.6667 2.66675 46.6667C2.66675 43.3067 4.21341 40.2933 6.66675 38.3467C8.50675 36.88 10.8267 36 13.3334 36M24.0001 46.6667C24.0001 40.7733 19.2267 36 13.3334 36M9.17342 46.6667L11.8134 49.3066L17.4934 44.0534M22.6667 28H41.3334" stroke="#008037" stroke-width="3" stroke-miterlimit="10" stroke-linecap="round" stroke-linejoin="round"/>
</svg>
