<svg width="49" height="49" viewBox="0 0 49 49" fill="none" xmlns="http://www.w3.org/2000/svg">
<circle cx="25" cy="25" r="24" fill="#FEFEFE"/>
<path d="M11.5151 16.83V23.565C11.5151 30.3 14.2151 33 20.9501 33H29.0351C35.7701 33 38.4701 30.3 38.4701 23.565V16.83M25.0001 18C27.7451 18 29.7701 15.765 29.5001 13.02L28.5101 3H21.5051L20.5001 13.02C20.2301 15.765 22.2551 18 25.0001 18ZM34.4651 18C37.4951 18 39.7151 15.54 39.4151 12.525L38.9951 8.4C38.4551 4.5 36.9551 3 33.0251 3H28.4501L29.5001 13.515C29.7551 15.99 31.9901 18 34.4651 18ZM15.4601 18C17.9351 18 20.1701 15.99 20.4101 13.515L21.4601 3H16.8851C12.9551 3 11.4551 4.5 10.9151 8.4L10.5101 12.525C10.2101 15.54 12.4301 18 15.4601 18ZM25.0001 25.5C22.4951 25.5 21.2501 26.745 21.2501 29.25V33H28.7501V29.25C28.7501 26.745 27.5051 25.5 25.0001 25.5Z" stroke="#008037" stroke-width="1.5" stroke-linecap="round" stroke-linejoin="round"/>
<path d="M10.3439 37C10.6972 37 11.0239 37.0967 11.3239 37.29C11.6239 37.4767 11.8639 37.7333 12.0439 38.06C12.2239 38.3867 12.3139 38.7533 12.3139 39.16C12.3139 39.5667 12.2239 39.9367 12.0439 40.27C11.8639 40.5967 11.6239 40.86 11.3239 41.06C11.0239 41.2533 10.6972 41.35 10.3439 41.35H8.41387L8.49387 41.19V43.49C8.49387 43.6367 8.4472 43.76 8.35387 43.86C8.2672 43.9533 8.15053 44 8.00387 44C7.86387 44 7.7472 43.9533 7.65387 43.86C7.5672 43.76 7.52387 43.6367 7.52387 43.49V37.51C7.52387 37.3633 7.57387 37.2433 7.67387 37.15C7.77387 37.05 7.89387 37 8.03387 37H10.3439ZM10.3439 40.39C10.5172 40.39 10.6739 40.3333 10.8139 40.22C10.9605 40.1067 11.0772 39.9567 11.1639 39.77C11.2572 39.5833 11.3039 39.38 11.3039 39.16C11.3039 38.94 11.2572 38.74 11.1639 38.56C11.0772 38.38 10.9605 38.2367 10.8139 38.13C10.6739 38.0167 10.5172 37.96 10.3439 37.96H8.39387L8.49387 37.81V40.52L8.40387 40.39H10.3439ZM13.9197 44C13.7731 44 13.6531 43.9533 13.5597 43.86C13.4664 43.76 13.4197 43.6367 13.4197 43.49V39.25C13.4197 39.1033 13.4664 38.9833 13.5597 38.89C13.6531 38.79 13.7731 38.74 13.9197 38.74C14.0597 38.74 14.1764 38.79 14.2697 38.89C14.3697 38.9833 14.4197 39.1033 14.4197 39.25V40.37L14.3197 39.94C14.3731 39.7533 14.4531 39.58 14.5597 39.42C14.6731 39.26 14.8064 39.12 14.9597 39C15.1131 38.88 15.2831 38.7867 15.4697 38.72C15.6631 38.6533 15.8631 38.62 16.0697 38.62C16.2431 38.62 16.3931 38.6667 16.5197 38.76C16.6464 38.8533 16.7097 38.97 16.7097 39.11C16.7097 39.29 16.6631 39.4233 16.5697 39.51C16.4764 39.59 16.3731 39.63 16.2597 39.63C16.1597 39.63 16.0631 39.61 15.9697 39.57C15.8764 39.5233 15.7664 39.5 15.6397 39.5C15.4997 39.5 15.3564 39.5367 15.2097 39.61C15.0631 39.6833 14.9297 39.7933 14.8097 39.94C14.6897 40.08 14.5931 40.2467 14.5197 40.44C14.4531 40.6333 14.4197 40.85 14.4197 41.09V43.49C14.4197 43.6367 14.3697 43.76 14.2697 43.86C14.1764 43.9533 14.0597 44 13.9197 44ZM22.4148 41.37C22.4148 41.9033 22.2981 42.3767 22.0648 42.79C21.8315 43.1967 21.5148 43.5167 21.1148 43.75C20.7148 43.9833 20.2648 44.1 19.7648 44.1C19.2648 44.1 18.8148 43.9833 18.4148 43.75C18.0148 43.5167 17.6948 43.1967 17.4548 42.79C17.2215 42.3767 17.1048 41.9033 17.1048 41.37C17.1048 40.83 17.2215 40.3567 17.4548 39.95C17.6948 39.5367 18.0148 39.2133 18.4148 38.98C18.8148 38.74 19.2648 38.62 19.7648 38.62C20.2648 38.62 20.7148 38.74 21.1148 38.98C21.5148 39.2133 21.8315 39.5367 22.0648 39.95C22.2981 40.3567 22.4148 40.83 22.4148 41.37ZM21.4148 41.37C21.4148 41.0033 21.3415 40.6867 21.1948 40.42C21.0481 40.1467 20.8481 39.9333 20.5948 39.78C20.3481 39.62 20.0715 39.54 19.7648 39.54C19.4581 39.54 19.1781 39.62 18.9248 39.78C18.6715 39.9333 18.4715 40.1467 18.3248 40.42C18.1781 40.6867 18.1048 41.0033 18.1048 41.37C18.1048 41.7233 18.1781 42.0367 18.3248 42.31C18.4715 42.5833 18.6715 42.7967 18.9248 42.95C19.1781 43.1033 19.4581 43.18 19.7648 43.18C20.0715 43.18 20.3481 43.1033 20.5948 42.95C20.8481 42.7967 21.0481 42.5833 21.1948 42.31C21.3415 42.0367 21.4148 41.7233 21.4148 41.37ZM25.9967 36.61C26.1233 36.61 26.2533 36.6267 26.3867 36.66C26.52 36.6933 26.63 36.75 26.7167 36.83C26.81 36.9033 26.8567 37.0067 26.8567 37.14C26.8567 37.2733 26.8167 37.3833 26.7367 37.47C26.6567 37.55 26.5633 37.59 26.4567 37.59C26.39 37.59 26.3 37.5767 26.1867 37.55C26.0733 37.5167 25.96 37.5 25.8467 37.5C25.6933 37.5 25.57 37.5367 25.4767 37.61C25.3833 37.6767 25.3167 37.7633 25.2767 37.87C25.2367 37.97 25.2167 38.07 25.2167 38.17V43.49C25.2167 43.6367 25.1667 43.76 25.0667 43.86C24.9733 43.9533 24.8567 44 24.7167 44C24.57 44 24.45 43.9533 24.3567 43.86C24.2633 43.76 24.2167 43.6367 24.2167 43.49V38.18C24.2167 37.72 24.3667 37.3433 24.6667 37.05C24.9733 36.7567 25.4167 36.61 25.9967 36.61ZM26.1967 38.83C26.33 38.83 26.44 38.8733 26.5267 38.96C26.6133 39.0467 26.6567 39.1567 26.6567 39.29C26.6567 39.4233 26.6133 39.5333 26.5267 39.62C26.44 39.7067 26.33 39.75 26.1967 39.75H23.6067C23.48 39.75 23.37 39.7067 23.2767 39.62C23.19 39.5333 23.1467 39.4233 23.1467 39.29C23.1467 39.1567 23.19 39.0467 23.2767 38.96C23.37 38.8733 23.48 38.83 23.6067 38.83H26.1967ZM28.5967 43.49C28.5967 43.6367 28.55 43.76 28.4567 43.86C28.3633 43.9533 28.2433 44 28.0967 44C27.9567 44 27.8367 43.9533 27.7367 43.86C27.6433 43.76 27.5967 43.6367 27.5967 43.49V39.21C27.5967 39.0633 27.6433 38.9433 27.7367 38.85C27.8367 38.75 27.9567 38.7 28.0967 38.7C28.2433 38.7 28.3633 38.75 28.4567 38.85C28.55 38.9433 28.5967 39.0633 28.5967 39.21V43.49ZM28.0967 38.04C27.9033 38.04 27.7633 38.0067 27.6767 37.94C27.59 37.8667 27.5467 37.7467 27.5467 37.58V37.42C27.5467 37.2533 27.5933 37.1367 27.6867 37.07C27.78 37.0033 27.92 36.97 28.1067 36.97C28.3067 36.97 28.45 37.0067 28.5367 37.08C28.6233 37.1467 28.6667 37.26 28.6667 37.42V37.58C28.6667 37.7533 28.62 37.8733 28.5267 37.94C28.44 38.0067 28.2967 38.04 28.0967 38.04ZM31.0232 43.49C31.0232 43.6367 30.9732 43.76 30.8732 43.86C30.7798 43.9533 30.6632 44 30.5232 44C30.3832 44 30.2632 43.9533 30.1632 43.86C30.0698 43.76 30.0232 43.6367 30.0232 43.49V37.11C30.0232 36.9633 30.0732 36.8433 30.1732 36.75C30.2732 36.65 30.3932 36.6 30.5332 36.6C30.6798 36.6 30.7965 36.65 30.8832 36.75C30.9765 36.8433 31.0232 36.9633 31.0232 37.11V43.49ZM33.4515 43.49C33.4515 43.6367 33.4049 43.76 33.3115 43.86C33.2182 43.9533 33.0982 44 32.9515 44C32.8115 44 32.6915 43.9533 32.5915 43.86C32.4982 43.76 32.4515 43.6367 32.4515 43.49V39.21C32.4515 39.0633 32.4982 38.9433 32.5915 38.85C32.6915 38.75 32.8115 38.7 32.9515 38.7C33.0982 38.7 33.2182 38.75 33.3115 38.85C33.4049 38.9433 33.4515 39.0633 33.4515 39.21V43.49ZM32.9415 38.04C32.7482 38.04 32.6082 38.0067 32.5215 37.94C32.4349 37.8667 32.3915 37.7467 32.3915 37.58V37.42C32.3915 37.2533 32.4382 37.1367 32.5315 37.07C32.6249 37.0033 32.7649 36.97 32.9515 36.97C33.1515 36.97 33.2949 37.0067 33.3815 37.08C33.4682 37.1467 33.5115 37.26 33.5115 37.42V37.58C33.5115 37.7533 33.4649 37.8733 33.3715 37.94C33.2849 38.0067 33.1415 38.04 32.9415 38.04ZM37.4367 38.65C37.93 38.65 38.31 38.7733 38.5767 39.02C38.8433 39.26 39.02 39.5867 39.1067 40L38.9467 39.95L39.0167 39.79C39.1033 39.6167 39.2333 39.4433 39.4067 39.27C39.5867 39.09 39.8 38.9433 40.0467 38.83C40.2933 38.71 40.5567 38.65 40.8367 38.65C41.2967 38.65 41.6533 38.75 41.9067 38.95C42.16 39.1433 42.3367 39.4067 42.4367 39.74C42.5367 40.0667 42.5867 40.4333 42.5867 40.84V43.49C42.5867 43.6367 42.54 43.76 42.4467 43.86C42.3533 43.9533 42.2333 44 42.0867 44C41.9467 44 41.8267 43.9533 41.7267 43.86C41.6333 43.76 41.5867 43.6367 41.5867 43.49V40.85C41.5867 40.6167 41.5533 40.4033 41.4867 40.21C41.4267 40.0167 41.3167 39.8633 41.1567 39.75C41.0033 39.63 40.79 39.57 40.5167 39.57C40.2567 39.57 40.0233 39.63 39.8167 39.75C39.6167 39.8633 39.46 40.0167 39.3467 40.21C39.2333 40.4033 39.1767 40.6167 39.1767 40.85V43.49C39.1767 43.6367 39.13 43.76 39.0367 43.86C38.9433 43.9533 38.8233 44 38.6767 44C38.53 44 38.41 43.9533 38.3167 43.86C38.2233 43.76 38.1767 43.6367 38.1767 43.49V40.84C38.1767 40.6067 38.1433 40.3933 38.0767 40.2C38.0167 40.0067 37.91 39.8533 37.7567 39.74C37.6033 39.6267 37.39 39.57 37.1167 39.57C36.8567 39.57 36.6267 39.6267 36.4267 39.74C36.2267 39.8533 36.07 40.0067 35.9567 40.2C35.85 40.3933 35.7967 40.6067 35.7967 40.84V43.49C35.7967 43.6367 35.7467 43.76 35.6467 43.86C35.5533 43.9533 35.4367 44 35.2967 44C35.15 44 35.03 43.9533 34.9367 43.86C34.8433 43.76 34.7967 43.6367 34.7967 43.49V39.25C34.7967 39.1033 34.8433 38.9833 34.9367 38.89C35.03 38.79 35.15 38.74 35.2967 38.74C35.4367 38.74 35.5533 38.79 35.6467 38.89C35.7467 38.9833 35.7967 39.1033 35.7967 39.25V39.84L35.6067 39.95C35.6533 39.8033 35.73 39.6533 35.8367 39.5C35.9433 39.3467 36.0767 39.2067 36.2367 39.08C36.4033 38.9533 36.5867 38.85 36.7867 38.77C36.9867 38.69 37.2033 38.65 37.4367 38.65Z" fill="#4E4E4E"/>
</svg>
