<svg width="73" height="59" viewBox="0 0 73 59" fill="none" xmlns="http://www.w3.org/2000/svg">
<path d="M34.8001 10.6666H30.6667V9.19996C30.6667 4.53329 32.5334 2.66663 37.2001 2.66663H42.8001C47.4667 2.66663 49.3334 4.53329 49.3334 9.19996V14.8C49.3334 19.4666 47.4667 21.3333 42.8001 21.3333H41.3334V17.2M34.8001 10.6666C39.4667 10.6666 41.3334 12.5333 41.3334 17.2M34.8001 10.6666H29.2001C24.5334 10.6666 22.6667 12.5333 22.6667 17.2V22.8C22.6667 27.4666 24.5334 29.3333 29.2001 29.3333H34.8001C39.4667 29.3333 41.3334 27.4666 41.3334 22.8V17.2M28.1069 19.9999L30.7069 22.5999L35.8935 17.3999" stroke="#F6792C" stroke-width="3" stroke-linecap="round" stroke-linejoin="round"/>
<path d="M23.4853 40.2727H24.5421V46.0511C24.5421 46.6477 24.4015 47.1804 24.1202 47.6491C23.8418 48.1151 23.4483 48.483 22.9398 48.7528C22.4313 49.0199 21.8347 49.1534 21.15 49.1534C20.4654 49.1534 19.8688 49.0199 19.3603 48.7528C18.8517 48.483 18.4569 48.1151 18.1756 47.6491C17.8972 47.1804 17.758 46.6477 17.758 46.0511V40.2727H18.8148V45.9659C18.8148 46.392 18.9086 46.7713 19.0961 47.1037C19.2836 47.4332 19.5506 47.6932 19.8972 47.8835C20.2466 48.071 20.6642 48.1648 21.15 48.1648C21.6358 48.1648 22.0534 48.071 22.4029 47.8835C22.7523 47.6932 23.0194 47.4332 23.204 47.1037C23.3915 46.7713 23.4853 46.392 23.4853 45.9659V40.2727ZM26.3287 49V48.233L30.0446 43.4602V43.392H26.448V42.4545H31.34V43.2557L27.7264 47.9943V48.0625H31.4593V49H26.3287ZM33.0083 49V42.4545H33.9799V43.4773H34.0652C34.2015 43.1278 34.4217 42.8565 34.7257 42.6634C35.0297 42.4673 35.3947 42.3693 35.8208 42.3693C36.2527 42.3693 36.612 42.4673 36.899 42.6634C37.1887 42.8565 37.4146 43.1278 37.5765 43.4773H37.6447C37.8123 43.1392 38.0637 42.8707 38.399 42.6719C38.7342 42.4702 39.1362 42.3693 39.6049 42.3693C40.1902 42.3693 40.6689 42.5526 41.041 42.919C41.4132 43.2827 41.5993 43.8494 41.5993 44.6193V49H40.5936V44.6193C40.5936 44.1364 40.4615 43.7912 40.1973 43.5838C39.9331 43.3764 39.622 43.2727 39.264 43.2727C38.8038 43.2727 38.4473 43.4119 38.1944 43.6903C37.9416 43.9659 37.8152 44.3153 37.8152 44.7386V49H36.7924V44.517C36.7924 44.1449 36.6717 43.8452 36.4302 43.6179C36.1887 43.3878 35.8777 43.2727 35.497 43.2727C35.2356 43.2727 34.9913 43.3423 34.764 43.4815C34.5396 43.6207 34.3578 43.8139 34.2186 44.0611C34.0822 44.3054 34.014 44.5881 34.014 44.9091V49H33.0083ZM45.3642 49.1534C44.9494 49.1534 44.573 49.0753 44.2349 48.919C43.8968 48.7599 43.6284 48.5312 43.4295 48.233C43.2306 47.9318 43.1312 47.5682 43.1312 47.142C43.1312 46.767 43.2051 46.4631 43.3528 46.2301C43.5005 45.9943 43.698 45.8097 43.9451 45.6761C44.1923 45.5426 44.465 45.4432 44.7633 45.3778C45.0645 45.3097 45.367 45.2557 45.671 45.2159C46.0687 45.1648 46.3912 45.1264 46.6383 45.1009C46.8883 45.0724 47.0701 45.0256 47.1838 44.9602C47.3002 44.8949 47.3585 44.7812 47.3585 44.6193V44.5852C47.3585 44.1648 47.2434 43.8381 47.0133 43.6051C46.786 43.3722 46.4409 43.2557 45.9778 43.2557C45.4977 43.2557 45.1213 43.3608 44.8485 43.571C44.5758 43.7812 44.3841 44.0057 44.2733 44.2443L43.3187 43.9034C43.4892 43.5057 43.7164 43.196 44.0005 42.9744C44.2875 42.75 44.6 42.5937 44.938 42.5057C45.2789 42.4148 45.6142 42.3693 45.9437 42.3693C46.1539 42.3693 46.3954 42.3949 46.6681 42.446C46.9437 42.4943 47.2093 42.5952 47.465 42.7486C47.7235 42.902 47.938 43.1335 48.1085 43.4432C48.2789 43.7528 48.3642 44.1676 48.3642 44.6875V49H47.3585V48.1136H47.3074C47.2392 48.2557 47.1255 48.4077 46.9664 48.5696C46.8074 48.7315 46.5957 48.8693 46.3315 48.983C46.0673 49.0966 45.7449 49.1534 45.3642 49.1534ZM45.5176 48.25C45.9153 48.25 46.2505 48.1719 46.5233 48.0156C46.7988 47.8594 47.0062 47.6577 47.1454 47.4105C47.2875 47.1634 47.3585 46.9034 47.3585 46.6307V45.7102C47.3159 45.7614 47.2221 45.8082 47.0772 45.8509C46.9352 45.8906 46.7704 45.9261 46.5829 45.9574C46.3983 45.9858 46.2179 46.0114 46.0417 46.0341C45.8684 46.054 45.7278 46.071 45.6199 46.0852C45.3585 46.1193 45.1142 46.1747 44.8869 46.2514C44.6625 46.3253 44.4806 46.4375 44.3414 46.5881C44.2051 46.7358 44.1369 46.9375 44.1369 47.1932C44.1369 47.5426 44.2662 47.8068 44.5247 47.9858C44.786 48.1619 45.117 48.25 45.5176 48.25ZM51.2054 45.0625V49H50.1998V42.4545H51.1713V43.4773H51.2566C51.41 43.1449 51.6429 42.8778 51.9554 42.6761C52.2679 42.4716 52.6713 42.3693 53.1657 42.3693C53.6088 42.3693 53.9966 42.4602 54.329 42.642C54.6614 42.821 54.9199 43.0938 55.1046 43.4602C55.2892 43.8239 55.3816 44.2841 55.3816 44.8409V49H54.3759V44.9091C54.3759 44.3949 54.2424 43.9943 53.9753 43.7074C53.7083 43.4176 53.3418 43.2727 52.8759 43.2727C52.5549 43.2727 52.2679 43.3423 52.0151 43.4815C51.7651 43.6207 51.5676 43.8239 51.4228 44.0909C51.2779 44.358 51.2054 44.6818 51.2054 45.0625Z" fill="#F6792C"/>
</svg>
