        <svg width="78" height="59" viewBox="0 0 78 59" fill="none" xmlns="http://www.w3.org/2000/svg">
            <path
                d="M38.9999 24V20M36.4266 3.75996L27.1866 11.16C26.1466 11.9866 25.4799 13.7333 25.7066 15.04L27.4799 25.6533C27.7999 27.5466 29.6133 29.08 31.5333 29.08H46.4666C48.3733 29.08 50.1999 27.5333 50.5199 25.6533L52.2933 15.04C52.5066 13.7333 51.8399 11.9866 50.8133 11.16L41.5733 3.7733C40.1466 2.62663 37.8399 2.62663 36.4266 3.75996Z"
                stroke="currentColor" stroke-width="2" stroke-linecap="round" stroke-linejoin="round" />
            <path
                d="M11.9031 49H10.7951L13.9996 40.2727H15.0906L18.2951 49H17.1871L14.5792 41.6534H14.511L11.9031 49ZM12.3121 45.5909H16.7781V46.5284H12.3121V45.5909ZM20.5238 45.0625V49H19.5181V42.4545H20.4897V43.4773H20.5749C20.7283 43.1449 20.9613 42.8778 21.2738 42.6761C21.5863 42.4716 21.9897 42.3693 22.484 42.3693C22.9272 42.3693 23.315 42.4602 23.6474 42.642C23.9798 42.821 24.2383 43.0938 24.4229 43.4602C24.6076 43.8239 24.6999 44.2841 24.6999 44.8409V49H23.6942V44.9091C23.6942 44.3949 23.5607 43.9943 23.2937 43.7074C23.0266 43.4176 22.6602 43.2727 22.1942 43.2727C21.8732 43.2727 21.5863 43.3423 21.3335 43.4815C21.0835 43.6207 20.886 43.8239 20.7411 44.0909C20.5962 44.358 20.5238 44.6818 20.5238 45.0625ZM28.4638 49.1534C28.049 49.1534 27.6726 49.0753 27.3345 48.919C26.9964 48.7599 26.728 48.5312 26.5291 48.233C26.3303 47.9318 26.2308 47.5682 26.2308 47.142C26.2308 46.767 26.3047 46.4631 26.4524 46.2301C26.6001 45.9943 26.7976 45.8097 27.0447 45.6761C27.2919 45.5426 27.5646 45.4432 27.8629 45.3778C28.1641 45.3097 28.4666 45.2557 28.7706 45.2159C29.1683 45.1648 29.4908 45.1264 29.7379 45.1009C29.9879 45.0724 30.1697 45.0256 30.2834 44.9602C30.3999 44.8949 30.4581 44.7812 30.4581 44.6193V44.5852C30.4581 44.1648 30.343 43.8381 30.1129 43.6051C29.8857 43.3722 29.5405 43.2557 29.0774 43.2557C28.5973 43.2557 28.2209 43.3608 27.9482 43.571C27.6754 43.7812 27.4837 44.0057 27.3729 44.2443L26.4183 43.9034C26.5888 43.5057 26.8161 43.196 27.1001 42.9744C27.3871 42.75 27.6996 42.5937 28.0376 42.5057C28.3786 42.4148 28.7138 42.3693 29.0433 42.3693C29.2536 42.3693 29.495 42.3949 29.7678 42.446C30.0433 42.4943 30.3089 42.5952 30.5646 42.7486C30.8232 42.902 31.0376 43.1335 31.2081 43.4432C31.3786 43.7528 31.4638 44.1676 31.4638 44.6875V49H30.4581V48.1136H30.407C30.3388 48.2557 30.2251 48.4077 30.0661 48.5696C29.907 48.7315 29.6953 48.8693 29.4311 48.983C29.1669 49.0966 28.8445 49.1534 28.4638 49.1534ZM28.6172 48.25C29.0149 48.25 29.3501 48.1719 29.6229 48.0156C29.8984 47.8594 30.1058 47.6577 30.245 47.4105C30.3871 47.1634 30.4581 46.9034 30.4581 46.6307V45.7102C30.4155 45.7614 30.3217 45.8082 30.1768 45.8509C30.0348 45.8906 29.87 45.9261 29.6825 45.9574C29.4979 45.9858 29.3175 46.0114 29.1413 46.0341C28.968 46.054 28.8274 46.071 28.7195 46.0852C28.4581 46.1193 28.2138 46.1747 27.9865 46.2514C27.7621 46.3253 27.5803 46.4375 27.4411 46.5881C27.3047 46.7358 27.2365 46.9375 27.2365 47.1932C27.2365 47.5426 27.3658 47.8068 27.6243 47.9858C27.8857 48.1619 28.2166 48.25 28.6172 48.25ZM41.5835 42.4545C41.5323 42.0227 41.3249 41.6875 40.9613 41.4489C40.5977 41.2102 40.1516 41.0909 39.6232 41.0909C39.2369 41.0909 38.8988 41.1534 38.609 41.2784C38.3221 41.4034 38.0977 41.5753 37.9357 41.794C37.7766 42.0128 37.6971 42.2614 37.6971 42.5398C37.6971 42.7727 37.7525 42.973 37.8633 43.1406C37.9769 43.3054 38.1218 43.4432 38.2979 43.554C38.4741 43.6619 38.6587 43.7514 38.8519 43.8224C39.0451 43.8906 39.2227 43.946 39.3846 43.9886L40.271 44.2273C40.4982 44.2869 40.7511 44.3693 41.0295 44.4744C41.3107 44.5795 41.5792 44.723 41.8349 44.9048C42.0934 45.0838 42.3065 45.3139 42.4741 45.5952C42.6417 45.8764 42.7255 46.2216 42.7255 46.6307C42.7255 47.1023 42.6019 47.5284 42.3548 47.9091C42.1104 48.2898 41.7525 48.5923 41.2809 48.8168C40.8121 49.0412 40.2425 49.1534 39.5721 49.1534C38.9471 49.1534 38.4059 49.0526 37.9485 48.8509C37.494 48.6491 37.136 48.3679 36.8746 48.0071C36.6161 47.6463 36.4698 47.2273 36.4357 46.75H37.5266C37.555 47.0795 37.6658 47.3523 37.859 47.5682C38.055 47.7812 38.3022 47.9403 38.6005 48.0455C38.9016 48.1477 39.2255 48.1989 39.5721 48.1989C39.9755 48.1989 40.3377 48.1335 40.6587 48.0028C40.9798 47.8693 41.234 47.6847 41.4215 47.4489C41.609 47.2102 41.7028 46.9318 41.7028 46.6136C41.7028 46.3239 41.6218 46.0881 41.4599 45.9062C41.2979 45.7244 41.0849 45.5767 40.8207 45.4631C40.5565 45.3494 40.271 45.25 39.9641 45.1648L38.8903 44.858C38.2085 44.6619 37.6687 44.3821 37.271 44.0185C36.8732 43.6548 36.6744 43.179 36.6744 42.5909C36.6744 42.1023 36.8065 41.6761 37.0707 41.3125C37.3377 40.946 37.6957 40.6619 38.1445 40.4602C38.5962 40.2557 39.1005 40.1534 39.6573 40.1534C40.2198 40.1534 40.7198 40.2543 41.1573 40.456C41.5948 40.6548 41.9414 40.9276 42.1971 41.2741C42.4556 41.6207 42.592 42.0142 42.6062 42.4545H41.5835ZM46.2528 49.1534C45.8381 49.1534 45.4616 49.0753 45.1236 48.919C44.7855 48.7599 44.517 48.5312 44.3182 48.233C44.1193 47.9318 44.0199 47.5682 44.0199 47.142C44.0199 46.767 44.0938 46.4631 44.2415 46.2301C44.3892 45.9943 44.5866 45.8097 44.8338 45.6761C45.081 45.5426 45.3537 45.4432 45.652 45.3778C45.9531 45.3097 46.2557 45.2557 46.5597 45.2159C46.9574 45.1648 47.2798 45.1264 47.527 45.1009C47.777 45.0724 47.9588 45.0256 48.0724 44.9602C48.1889 44.8949 48.2472 44.7812 48.2472 44.6193V44.5852C48.2472 44.1648 48.1321 43.8381 47.902 43.6051C47.6747 43.3722 47.3295 43.2557 46.8665 43.2557C46.3864 43.2557 46.0099 43.3608 45.7372 43.571C45.4645 43.7812 45.2727 44.0057 45.1619 44.2443L44.2074 43.9034C44.3778 43.5057 44.6051 43.196 44.8892 42.9744C45.1761 42.75 45.4886 42.5937 45.8267 42.5057C46.1676 42.4148 46.5028 42.3693 46.8324 42.3693C47.0426 42.3693 47.2841 42.3949 47.5568 42.446C47.8324 42.4943 48.098 42.5952 48.3537 42.7486C48.6122 42.902 48.8267 43.1335 48.9972 43.4432C49.1676 43.7528 49.2528 44.1676 49.2528 44.6875V49H48.2472V48.1136H48.196C48.1278 48.2557 48.0142 48.4077 47.8551 48.5696C47.696 48.7315 47.4844 48.8693 47.2202 48.983C46.956 49.0966 46.6335 49.1534 46.2528 49.1534ZM46.4062 48.25C46.804 48.25 47.1392 48.1719 47.4119 48.0156C47.6875 47.8594 47.8949 47.6577 48.0341 47.4105C48.1761 47.1634 48.2472 46.9034 48.2472 46.6307V45.7102C48.2045 45.7614 48.1108 45.8082 47.9659 45.8509C47.8239 45.8906 47.6591 45.9261 47.4716 45.9574C47.2869 45.9858 47.1065 46.0114 46.9304 46.0341C46.7571 46.054 46.6165 46.071 46.5085 46.0852C46.2472 46.1193 46.0028 46.1747 45.7756 46.2514C45.5511 46.3253 45.3693 46.4375 45.2301 46.5881C45.0938 46.7358 45.0256 46.9375 45.0256 47.1932C45.0256 47.5426 45.1548 47.8068 45.4134 47.9858C45.6747 48.1619 46.0057 48.25 46.4062 48.25ZM51.5018 51.4545C51.3313 51.4545 51.1793 51.4403 51.0458 51.4119C50.9123 51.3864 50.82 51.3608 50.7688 51.3352L51.0245 50.4489C51.2688 50.5114 51.4847 50.5341 51.6722 50.517C51.8597 50.5 52.0259 50.4162 52.1708 50.2656C52.3185 50.1179 52.4535 49.8778 52.5756 49.5455L52.7631 49.0341L50.3427 42.4545H51.4336L53.2404 47.6705H53.3086L55.1154 42.4545H56.2063L53.4279 49.9545C53.3029 50.2926 53.1481 50.5724 52.9634 50.794C52.7788 51.0185 52.5643 51.1847 52.32 51.2926C52.0785 51.4006 51.8058 51.4545 51.5018 51.4545ZM60.4485 42.4545V43.3068H56.9201V42.4545H60.4485ZM57.9769 49V41.5511C57.9769 41.1761 58.065 40.8636 58.2411 40.6136C58.4173 40.3636 58.646 40.1761 58.9272 40.0511C59.2085 39.9261 59.5053 39.8636 59.8178 39.8636C60.065 39.8636 60.2667 39.8835 60.4229 39.9233C60.5792 39.9631 60.6957 40 60.7724 40.0341L60.4826 40.9034C60.4315 40.8864 60.3604 40.8651 60.2695 40.8395C60.1815 40.8139 60.065 40.8011 59.9201 40.8011C59.5877 40.8011 59.3477 40.8849 59.1999 41.0526C59.055 41.2202 58.9826 41.4659 58.9826 41.7898V49H57.9769ZM63.5966 49.1534C63.1818 49.1534 62.8054 49.0753 62.4673 48.919C62.1293 48.7599 61.8608 48.5312 61.6619 48.233C61.4631 47.9318 61.3636 47.5682 61.3636 47.142C61.3636 46.767 61.4375 46.4631 61.5852 46.2301C61.733 45.9943 61.9304 45.8097 62.1776 45.6761C62.4247 45.5426 62.6974 45.4432 62.9957 45.3778C63.2969 45.3097 63.5994 45.2557 63.9034 45.2159C64.3011 45.1648 64.6236 45.1264 64.8707 45.1009C65.1207 45.0724 65.3026 45.0256 65.4162 44.9602C65.5327 44.8949 65.5909 44.7812 65.5909 44.6193V44.5852C65.5909 44.1648 65.4759 43.8381 65.2457 43.6051C65.0185 43.3722 64.6733 43.2557 64.2102 43.2557C63.7301 43.2557 63.3537 43.3608 63.081 43.571C62.8082 43.7812 62.6165 44.0057 62.5057 44.2443L61.5511 43.9034C61.7216 43.5057 61.9489 43.196 62.233 42.9744C62.5199 42.75 62.8324 42.5937 63.1705 42.5057C63.5114 42.4148 63.8466 42.3693 64.1761 42.3693C64.3864 42.3693 64.6278 42.3949 64.9006 42.446C65.1761 42.4943 65.4418 42.5952 65.6974 42.7486C65.956 42.902 66.1705 43.1335 66.3409 43.4432C66.5114 43.7528 66.5966 44.1676 66.5966 44.6875V49H65.5909V48.1136H65.5398C65.4716 48.2557 65.358 48.4077 65.1989 48.5696C65.0398 48.7315 64.8281 48.8693 64.5639 48.983C64.2997 49.0966 63.9773 49.1534 63.5966 49.1534ZM63.75 48.25C64.1477 48.25 64.483 48.1719 64.7557 48.0156C65.0313 47.8594 65.2386 47.6577 65.3778 47.4105C65.5199 47.1634 65.5909 46.9034 65.5909 46.6307V45.7102C65.5483 45.7614 65.4545 45.8082 65.3097 45.8509C65.1676 45.8906 65.0028 45.9261 64.8153 45.9574C64.6307 45.9858 64.4503 46.0114 64.2741 46.0341C64.1009 46.054 63.9602 46.071 63.8523 46.0852C63.5909 46.1193 63.3466 46.1747 63.1193 46.2514C62.8949 46.3253 62.7131 46.4375 62.5739 46.5881C62.4375 46.7358 62.3693 46.9375 62.3693 47.1932C62.3693 47.5426 62.4986 47.8068 62.7571 47.9858C63.0185 48.1619 63.3494 48.25 63.75 48.25Z"
                fill="currentColor" />
        </svg>