<svg width="78" height="59" viewBox="0 0 78 59" fill="none" xmlns="http://www.w3.org/2000/svg">
<path d="M43.08 25.8534C47.24 26.2534 49.4533 24.3067 50.5733 19.4934L51.88 13.9201C53.1866 8.34672 51.48 5.58672 45.8933 4.28005L43.6666 3.76005C39.2133 2.70672 36.56 3.57338 35 6.80005M43.08 25.8534C42.4133 25.8001 41.6933 25.6801 40.92 25.4934L38.68 24.9601C33.12 23.6401 31.4 20.8934 32.7066 15.3201L34.0133 9.73339C34.28 8.60005 34.6 7.61338 35 6.80005M43.08 25.8534C42.2533 26.4134 41.2133 26.8801 39.9466 27.2934L37.84 27.9867C32.5466 29.6934 29.76 28.2667 28.04 22.9734L26.3333 17.7067C24.6266 12.4134 26.04 9.61338 31.3333 7.90672L33.44 7.21338C33.9866 7.04005 34.5066 6.89338 35 6.80005M39.8533 11.3734L46.32 13.0134M38.5466 16.5334L42.4133 17.5201" stroke="#F6792C" stroke-width="3" stroke-linecap="round" stroke-linejoin="round"/>
<path d="M15.6349 49V40.2727H16.6918V44.1591H21.3452V40.2727H22.402V49H21.3452V45.0966H16.6918V49H15.6349ZM26.3075 49.1534C25.8928 49.1534 25.5163 49.0753 25.1783 48.919C24.8402 48.7599 24.5717 48.5312 24.3729 48.233C24.174 47.9318 24.0746 47.5682 24.0746 47.142C24.0746 46.767 24.1484 46.4631 24.2962 46.2301C24.4439 45.9943 24.6413 45.8097 24.8885 45.6761C25.1357 45.5426 25.4084 45.4432 25.7067 45.3778C26.0078 45.3097 26.3104 45.2557 26.6143 45.2159C27.0121 45.1648 27.3345 45.1264 27.5817 45.1009C27.8317 45.0724 28.0135 45.0256 28.1271 44.9602C28.2436 44.8949 28.3018 44.7812 28.3018 44.6193V44.5852C28.3018 44.1648 28.1868 43.8381 27.9567 43.6051C27.7294 43.3722 27.3842 43.2557 26.9212 43.2557C26.4411 43.2557 26.0646 43.3608 25.7919 43.571C25.5192 43.7812 25.3274 44.0057 25.2166 44.2443L24.2621 43.9034C24.4325 43.5057 24.6598 43.196 24.9439 42.9744C25.2308 42.75 25.5433 42.5937 25.8814 42.5057C26.2223 42.4148 26.5575 42.3693 26.8871 42.3693C27.0973 42.3693 27.3388 42.3949 27.6115 42.446C27.8871 42.4943 28.1527 42.5952 28.4084 42.7486C28.6669 42.902 28.8814 43.1335 29.0518 43.4432C29.2223 43.7528 29.3075 44.1676 29.3075 44.6875V49H28.3018V48.1136H28.2507C28.1825 48.2557 28.0689 48.4077 27.9098 48.5696C27.7507 48.7315 27.5391 48.8693 27.2749 48.983C27.0107 49.0966 26.6882 49.1534 26.3075 49.1534ZM26.4609 48.25C26.8587 48.25 27.1939 48.1719 27.4666 48.0156C27.7422 47.8594 27.9496 47.6577 28.0888 47.4105C28.2308 47.1634 28.3018 46.9034 28.3018 46.6307V45.7102C28.2592 45.7614 28.1655 45.8082 28.0206 45.8509C27.8786 45.8906 27.7138 45.9261 27.5263 45.9574C27.3416 45.9858 27.1612 46.0114 26.9851 46.0341C26.8118 46.054 26.6712 46.071 26.5632 46.0852C26.3018 46.1193 26.0575 46.1747 25.8303 46.2514C25.6058 46.3253 25.424 46.4375 25.2848 46.5881C25.1484 46.7358 25.0803 46.9375 25.0803 47.1932C25.0803 47.5426 25.2095 47.8068 25.468 47.9858C25.7294 48.1619 26.0604 48.25 26.4609 48.25ZM31.2795 49V40.2727H32.2852V43.4943H32.3704C32.4442 43.3807 32.5465 43.2358 32.6772 43.0597C32.8107 42.8807 33.0011 42.7216 33.2482 42.5824C33.4982 42.4403 33.8363 42.3693 34.2624 42.3693C34.8136 42.3693 35.2994 42.5071 35.7198 42.7827C36.1403 43.0582 36.4684 43.4489 36.7042 43.9545C36.94 44.4602 37.0579 45.0568 37.0579 45.7443C37.0579 46.4375 36.94 47.0384 36.7042 47.5469C36.4684 48.0526 36.1417 48.4446 35.7241 48.723C35.3065 48.9986 34.8249 49.1364 34.2795 49.1364C33.859 49.1364 33.5224 49.0668 33.2695 48.9276C33.0167 48.7855 32.8221 48.625 32.6857 48.446C32.5494 48.2642 32.4442 48.1136 32.3704 47.9943H32.2511V49H31.2795ZM32.2681 45.7273C32.2681 46.2216 32.3406 46.6577 32.4854 47.0355C32.6303 47.4105 32.842 47.7045 33.1204 47.9176C33.3988 48.1278 33.7397 48.233 34.1431 48.233C34.5636 48.233 34.9144 48.1222 35.1957 47.9006C35.4798 47.6761 35.6928 47.375 35.8349 46.9972C35.9798 46.6165 36.0522 46.1932 36.0522 45.7273C36.0522 45.267 35.9812 44.8523 35.8391 44.483C35.6999 44.1108 35.4883 43.8168 35.2042 43.6009C34.9229 43.3821 34.5692 43.2727 34.1431 43.2727C33.734 43.2727 33.3903 43.3764 33.1119 43.5838C32.8335 43.7884 32.6232 44.0753 32.4812 44.4446C32.3391 44.8111 32.2681 45.2386 32.2681 45.7273ZM41.3406 49.1364C40.7099 49.1364 40.1658 48.9972 39.7085 48.7188C39.2539 48.4375 38.9031 48.0455 38.6559 47.5426C38.4116 47.0369 38.2894 46.4489 38.2894 45.7784C38.2894 45.108 38.4116 44.517 38.6559 44.0057C38.9031 43.4915 39.2468 43.0909 39.6871 42.804C40.1303 42.5142 40.6474 42.3693 41.2383 42.3693C41.5792 42.3693 41.9158 42.4261 42.2482 42.5398C42.5806 42.6534 42.8832 42.8381 43.1559 43.0938C43.4286 43.3466 43.646 43.6818 43.8079 44.0994C43.9698 44.517 44.0508 45.0312 44.0508 45.642V46.0682H39.0053V45.1989H43.0281C43.0281 44.8295 42.9542 44.5 42.8065 44.2102C42.6616 43.9205 42.4542 43.6918 42.1843 43.5241C41.9173 43.3565 41.6019 43.2727 41.2383 43.2727C40.8377 43.2727 40.4911 43.3722 40.1985 43.571C39.9087 43.767 39.6857 44.0227 39.5295 44.3381C39.3732 44.6534 39.2951 44.9915 39.2951 45.3523V45.9318C39.2951 46.4261 39.3803 46.8452 39.5508 47.1889C39.7241 47.5298 39.9641 47.7898 40.271 47.9688C40.5778 48.1449 40.9343 48.233 41.3406 48.233C41.6048 48.233 41.8434 48.196 42.0565 48.1222C42.2724 48.0455 42.4585 47.9318 42.6147 47.7812C42.771 47.6278 42.8917 47.4375 42.9769 47.2102L43.9485 47.483C43.8462 47.8125 43.6744 48.1023 43.4329 48.3523C43.1914 48.5994 42.8931 48.7926 42.538 48.9318C42.1829 49.0682 41.7837 49.1364 41.3406 49.1364ZM45.5806 49V42.4545H46.5522V43.4432H46.6204C46.7397 43.1193 46.9556 42.8565 47.2681 42.6548C47.5806 42.4531 47.9329 42.3523 48.3249 42.3523C48.3988 42.3523 48.4911 42.3537 48.6019 42.3565C48.7127 42.3594 48.7965 42.3636 48.8533 42.3693V43.392C48.8192 43.3835 48.7411 43.3707 48.619 43.3537C48.4996 43.3338 48.3732 43.3239 48.2397 43.3239C47.9215 43.3239 47.6374 43.3906 47.3874 43.5241C47.1403 43.6548 46.9442 43.8366 46.7994 44.0696C46.6573 44.2997 46.5863 44.5625 46.5863 44.858V49H45.5806ZM51.0511 40.2727V49H50.0455V40.2727H51.0511ZM55.6374 49.1364C55.0067 49.1364 54.4627 48.9972 54.0053 48.7188C53.5508 48.4375 53.1999 48.0455 52.9528 47.5426C52.7085 47.0369 52.5863 46.4489 52.5863 45.7784C52.5863 45.108 52.7085 44.517 52.9528 44.0057C53.1999 43.4915 53.5437 43.0909 53.984 42.804C54.4272 42.5142 54.9442 42.3693 55.5352 42.3693C55.8761 42.3693 56.2127 42.4261 56.5451 42.5398C56.8775 42.6534 57.18 42.8381 57.4528 43.0938C57.7255 43.3466 57.9428 43.6818 58.1048 44.0994C58.2667 44.517 58.3477 45.0312 58.3477 45.642V46.0682H53.3022V45.1989H57.3249C57.3249 44.8295 57.2511 44.5 57.1033 44.2102C56.9585 43.9205 56.7511 43.6918 56.4812 43.5241C56.2141 43.3565 55.8988 43.2727 55.5352 43.2727C55.1346 43.2727 54.788 43.3722 54.4954 43.571C54.2056 43.767 53.9826 44.0227 53.8263 44.3381C53.6701 44.6534 53.592 44.9915 53.592 45.3523V45.9318C53.592 46.4261 53.6772 46.8452 53.8477 47.1889C54.021 47.5298 54.261 47.7898 54.5678 47.9688C54.8746 48.1449 55.2312 48.233 55.6374 48.233C55.9016 48.233 56.1403 48.196 56.3533 48.1222C56.5692 48.0455 56.7553 47.9318 56.9116 47.7812C57.0678 47.6278 57.1886 47.4375 57.2738 47.2102L58.2454 47.483C58.1431 47.8125 57.9712 48.1023 57.7298 48.3523C57.4883 48.5994 57.19 48.7926 56.8349 48.9318C56.4798 49.0682 56.0806 49.1364 55.6374 49.1364ZM59.8775 49V42.4545H60.8491V43.4432H60.9173C61.0366 43.1193 61.2525 42.8565 61.565 42.6548C61.8775 42.4531 62.2298 42.3523 62.6218 42.3523C62.6957 42.3523 62.788 42.3537 62.8988 42.3565C63.0096 42.3594 63.0934 42.3636 63.1502 42.3693V43.392C63.1161 43.3835 63.038 43.3707 62.9158 43.3537C62.7965 43.3338 62.6701 43.3239 62.5366 43.3239C62.2184 43.3239 61.9343 43.3906 61.6843 43.5241C61.4371 43.6548 61.2411 43.8366 61.0962 44.0696C60.9542 44.2997 60.8832 44.5625 60.8832 44.858V49H59.8775Z" fill="#F6792C"/>
</svg>
