<svg width="78" height="59" viewBox="0 0 78 59" fill="none" xmlns="http://www.w3.org/2000/svg">
<path d="M33.6667 6.66663H25.6667M29.6667 25.3333H25.6667M27.0001 16H25.6667M43.5201 6.94663L45.4001 10.7066C45.6534 11.2266 46.3334 11.7199 46.9068 11.8266L50.3068 12.3866C52.4801 12.7466 52.9868 14.3199 51.4268 15.8933L48.7734 18.5466C48.3334 18.9866 48.0801 19.8533 48.2268 20.48L48.9868 23.76C49.5868 26.3466 48.2001 27.36 45.9201 26L42.7334 24.1066C42.1601 23.76 41.2001 23.76 40.6268 24.1066L37.4401 26C35.1601 27.3466 33.7734 26.3466 34.3734 23.76L35.1334 20.48C35.2801 19.8666 35.0268 19 34.5868 18.5466L31.9334 15.8933C30.3734 14.3333 30.8801 12.7599 33.0534 12.3866L36.4534 11.8266C37.0268 11.7333 37.7068 11.2266 37.9601 10.7066L39.8401 6.94663C40.8401 4.90663 42.4935 4.90663 43.5201 6.94663Z" stroke="#4E4E4E" stroke-width="2" stroke-linecap="round" stroke-linejoin="round"/>
<path d="M17.0763 49V40.2727H22.3093V41.2102H18.1332V44.1591H21.9173V45.0966H18.1332V49H17.0763ZM23.983 49V42.4545H24.9886V49H23.983ZM26.8306 49V42.4545H27.8022V43.4432H27.8704C27.9897 43.1193 28.2056 42.8565 28.5181 42.6548C28.8306 42.4531 29.1829 42.3523 29.5749 42.3523C29.6488 42.3523 29.7411 42.3537 29.8519 42.3565C29.9627 42.3594 30.0465 42.3636 30.1033 42.3693V43.392C30.0692 43.3835 29.9911 43.3707 29.869 43.3537C29.7496 43.3338 29.6232 43.3239 29.4897 43.3239C29.1715 43.3239 28.8874 43.3906 28.6374 43.5241C28.3903 43.6548 28.1942 43.8366 28.0494 44.0696C27.9073 44.2997 27.8363 44.5625 27.8363 44.858V49H26.8306ZM35.9318 43.9205L35.0284 44.1761C34.9716 44.0256 34.8878 43.8793 34.777 43.7372C34.669 43.5923 34.5213 43.473 34.3338 43.3793C34.1463 43.2855 33.9062 43.2386 33.6136 43.2386C33.2131 43.2386 32.8793 43.331 32.6122 43.5156C32.348 43.6974 32.2159 43.929 32.2159 44.2102C32.2159 44.4602 32.3068 44.6577 32.4886 44.8026C32.6705 44.9474 32.9545 45.0682 33.3409 45.1648L34.3125 45.4034C34.8977 45.5455 35.3338 45.7628 35.6207 46.0554C35.9077 46.3452 36.0511 46.7187 36.0511 47.1761C36.0511 47.5511 35.9432 47.8864 35.7273 48.1818C35.5142 48.4773 35.2159 48.7102 34.8324 48.8807C34.4489 49.0511 34.0028 49.1364 33.4943 49.1364C32.8267 49.1364 32.2741 48.9915 31.8366 48.7017C31.3991 48.4119 31.1222 47.9886 31.0057 47.4318L31.9602 47.1932C32.0511 47.5455 32.223 47.8097 32.4759 47.9858C32.7315 48.1619 33.0653 48.25 33.4773 48.25C33.946 48.25 34.3182 48.1506 34.5938 47.9517C34.8722 47.75 35.0114 47.5085 35.0114 47.2273C35.0114 47 34.9318 46.8097 34.7727 46.6562C34.6136 46.5 34.3693 46.3835 34.0398 46.3068L32.9489 46.0511C32.3494 45.9091 31.9091 45.6889 31.6278 45.3906C31.3494 45.0895 31.2102 44.7131 31.2102 44.2614C31.2102 43.892 31.3139 43.5653 31.5213 43.2812C31.7315 42.9972 32.017 42.7741 32.3778 42.6122C32.7415 42.4503 33.1534 42.3693 33.6136 42.3693C34.2614 42.3693 34.7699 42.5114 35.1392 42.7955C35.5114 43.0795 35.7756 43.4545 35.9318 43.9205ZM39.4911 49.1534C39.0763 49.1534 38.6999 49.0753 38.3619 48.919C38.0238 48.7599 37.7553 48.5312 37.5565 48.233C37.3576 47.9318 37.2582 47.5682 37.2582 47.142C37.2582 46.767 37.332 46.4631 37.4798 46.2301C37.6275 45.9943 37.8249 45.8097 38.0721 45.6761C38.3192 45.5426 38.592 45.4432 38.8903 45.3778C39.1914 45.3097 39.494 45.2557 39.7979 45.2159C40.1957 45.1648 40.5181 45.1264 40.7653 45.1009C41.0153 45.0724 41.1971 45.0256 41.3107 44.9602C41.4272 44.8949 41.4854 44.7812 41.4854 44.6193V44.5852C41.4854 44.1648 41.3704 43.8381 41.1403 43.6051C40.913 43.3722 40.5678 43.2557 40.1048 43.2557C39.6246 43.2557 39.2482 43.3608 38.9755 43.571C38.7028 43.7812 38.511 44.0057 38.4002 44.2443L37.4457 43.9034C37.6161 43.5057 37.8434 43.196 38.1275 42.9744C38.4144 42.75 38.7269 42.5937 39.065 42.5057C39.4059 42.4148 39.7411 42.3693 40.0707 42.3693C40.2809 42.3693 40.5224 42.3949 40.7951 42.446C41.0707 42.4943 41.3363 42.5952 41.592 42.7486C41.8505 42.902 42.065 43.1335 42.2354 43.4432C42.4059 43.7528 42.4911 44.1676 42.4911 44.6875V49H41.4854V48.1136H41.4343C41.3661 48.2557 41.2525 48.4077 41.0934 48.5696C40.9343 48.7315 40.7227 48.8693 40.4585 48.983C40.1942 49.0966 39.8718 49.1534 39.4911 49.1534ZM39.6445 48.25C40.0423 48.25 40.3775 48.1719 40.6502 48.0156C40.9258 47.8594 41.1332 47.6577 41.2724 47.4105C41.4144 47.1634 41.4854 46.9034 41.4854 46.6307V45.7102C41.4428 45.7614 41.3491 45.8082 41.2042 45.8509C41.0621 45.8906 40.8974 45.9261 40.7099 45.9574C40.5252 45.9858 40.3448 46.0114 40.1687 46.0341C39.9954 46.054 39.8548 46.071 39.7468 46.0852C39.4854 46.1193 39.2411 46.1747 39.0138 46.2514C38.7894 46.3253 38.6076 46.4375 38.4684 46.5881C38.332 46.7358 38.2638 46.9375 38.2638 47.1932C38.2638 47.5426 38.3931 47.8068 38.6516 47.9858C38.913 48.1619 39.244 48.25 39.6445 48.25ZM47.1733 42.4545V43.3068H43.7812V42.4545H47.1733ZM44.7699 40.8864H45.7756V47.125C45.7756 47.4091 45.8168 47.6222 45.8991 47.7642C45.9844 47.9034 46.0923 47.9972 46.223 48.0455C46.3565 48.0909 46.4972 48.1136 46.6449 48.1136C46.7557 48.1136 46.8466 48.108 46.9176 48.0966C46.9886 48.0824 47.0455 48.071 47.0881 48.0625L47.2926 48.9659C47.2244 48.9915 47.1293 49.017 47.0071 49.0426C46.8849 49.071 46.7301 49.0852 46.5426 49.0852C46.2585 49.0852 45.9801 49.0241 45.7074 48.902C45.4375 48.7798 45.2131 48.5938 45.0341 48.3438C44.858 48.0938 44.7699 47.7784 44.7699 47.3977V40.8864ZM49.8324 40.2727V49H48.8267V40.2727H49.8324ZM53.6005 49.1534C53.1857 49.1534 52.8093 49.0753 52.4712 48.919C52.1332 48.7599 51.8647 48.5312 51.6658 48.233C51.467 47.9318 51.3675 47.5682 51.3675 47.142C51.3675 46.767 51.4414 46.4631 51.5891 46.2301C51.7369 45.9943 51.9343 45.8097 52.1815 45.6761C52.4286 45.5426 52.7013 45.4432 52.9996 45.3778C53.3008 45.3097 53.6033 45.2557 53.9073 45.2159C54.305 45.1648 54.6275 45.1264 54.8746 45.1009C55.1246 45.0724 55.3065 45.0256 55.4201 44.9602C55.5366 44.8949 55.5948 44.7812 55.5948 44.6193V44.5852C55.5948 44.1648 55.4798 43.8381 55.2496 43.6051C55.0224 43.3722 54.6772 43.2557 54.2141 43.2557C53.734 43.2557 53.3576 43.3608 53.0849 43.571C52.8121 43.7812 52.6204 44.0057 52.5096 44.2443L51.555 43.9034C51.7255 43.5057 51.9528 43.196 52.2369 42.9744C52.5238 42.75 52.8363 42.5937 53.1744 42.5057C53.5153 42.4148 53.8505 42.3693 54.18 42.3693C54.3903 42.3693 54.6317 42.3949 54.9045 42.446C55.18 42.4943 55.4457 42.5952 55.7013 42.7486C55.9599 42.902 56.1744 43.1335 56.3448 43.4432C56.5153 43.7528 56.6005 44.1676 56.6005 44.6875V49H55.5948V48.1136H55.5437C55.4755 48.2557 55.3619 48.4077 55.2028 48.5696C55.0437 48.7315 54.832 48.8693 54.5678 48.983C54.3036 49.0966 53.9812 49.1534 53.6005 49.1534ZM53.7539 48.25C54.1516 48.25 54.4869 48.1719 54.7596 48.0156C55.0352 47.8594 55.2425 47.6577 55.3817 47.4105C55.5238 47.1634 55.5948 46.9034 55.5948 46.6307V45.7102C55.5522 45.7614 55.4585 45.8082 55.3136 45.8509C55.1715 45.8906 55.0067 45.9261 54.8192 45.9574C54.6346 45.9858 54.4542 46.0114 54.2781 46.0341C54.1048 46.054 53.9641 46.071 53.8562 46.0852C53.5948 46.1193 53.3505 46.1747 53.1232 46.2514C52.8988 46.3253 52.717 46.4375 52.5778 46.5881C52.4414 46.7358 52.3732 46.9375 52.3732 47.1932C52.3732 47.5426 52.5025 47.8068 52.761 47.9858C53.0224 48.1619 53.3533 48.25 53.7539 48.25ZM58.4361 49V42.4545H59.4077V43.4432H59.4759C59.5952 43.1193 59.8111 42.8565 60.1236 42.6548C60.4361 42.4531 60.7884 42.3523 61.1804 42.3523C61.2543 42.3523 61.3466 42.3537 61.4574 42.3565C61.5682 42.3594 61.652 42.3636 61.7088 42.3693V43.392C61.6747 43.3835 61.5966 43.3707 61.4744 43.3537C61.3551 43.3338 61.2287 43.3239 61.0952 43.3239C60.777 43.3239 60.4929 43.3906 60.2429 43.5241C59.9957 43.6548 59.7997 43.8366 59.6548 44.0696C59.5128 44.2997 59.4418 44.5625 59.4418 44.858V49H58.4361Z" fill="#4E4E4E"/>
</svg>
